Coordinates
version=1
nRows=16
nColumns=22
inDegrees=yes

Units are S.I. units (second, meters, Newtons, ...)
If the header above contains a line with 'inDegrees', this indicates whether rotational values are in degrees (yes) or radians (no).

endheader
time	pelvis_tilt	pelvis_list	pelvis_rotation	pelvis_tx	pelvis_ty	pelvis_tz	hip_flexion_r	hip_adduction_r	hip_rotation_r	knee_angle_r	ankle_angle_r	subtalar_angle_r	hip_flexion_l	hip_adduction_l	hip_rotation_l	knee_angle_l	ankle_angle_l	subtalar_angle_l	lumbar_extension	lumbar_bending	lumbar_rotation
      0.01000000	     -2.21873519	     -4.17150217	      0.17820723	      0.09146726	      1.01946960	      1.34397774	      2.01554066	      2.28729112	     -4.01263526	    -12.44716361	      9.96404320	      1.52727944	     -1.08845656	     -7.13135325	    -12.19661165	     -7.41810557	      9.72678383	     -2.41412326	     -3.56248152	      1.88760858	     -2.43403691
      0.02000000	     -2.24659743	     -4.17242654	      0.18815402	      0.09154097	      1.01946782	      1.34393942	      2.02022002	      2.28717640	     -4.01780701	    -12.40884465	      9.95318566	      1.54721283	     -1.07557180	     -7.12904947	    -12.20013596	     -7.38874885	      9.71240113	     -2.41332642	     -3.55615364	      1.87512518	     -2.46653967
      0.03000000	     -2.29030005	     -4.17071629	      0.20589202	      0.09162260	      1.01944975	      1.34388991	      2.04045056	      2.28325202	     -4.03526867	    -12.36953235	      9.93501511	      1.56908846	     -1.04745840	     -7.12409202	    -12.18619459	     -7.35399000	      9.68907306	     -2.40591538	     -3.53181966	      1.85610322	     -2.50257575
      0.04000000	     -2.36504849	     -4.16768302	      0.24204629	      0.09166335	      1.01938902	      1.34381140	      2.10768313	      2.27537549	     -4.08062800	    -12.35485120	      9.91291310	      1.60992649	     -0.96911354	     -7.11939798	    -12.12023595	     -7.34140613	      9.65188730	     -2.38100448	     -3.47539933	      1.83338924	     -2.55256013
      0.05000000	     -2.43313134	     -4.17045172	      0.26517972	      0.09174146	      1.01932844	      1.34375752	      2.16072479	      2.27489131	     -4.11466273	    -12.32990663	      9.90690615	      1.63485389	     -0.90663877	     -7.12259255	    -12.08867461	     -7.32236068	      9.64654016	     -2.35460605	     -3.41872912	      1.81650721	     -2.59130535
      0.06000000	     -2.47183489	     -4.17668114	      0.27242816	      0.09184019	      1.01930413	      1.34372414	      2.18172408	      2.27846413	     -4.13640672	    -12.30372854	      9.90380243	      1.64319052	     -0.88806514	     -7.12934432	    -12.08118160	     -7.28928495	      9.64841779	     -2.34077904	     -3.39179273	      1.80457784	     -2.60942246
      0.07000000	     -2.54196127	     -4.18960998	      0.30462172	      0.09190006	      1.01922958	      1.34368666	      2.25189791	      2.28887715	     -4.17919028	    -12.30729451	      9.88667888	      1.67198728	     -0.81431487	     -7.14965861	    -12.00750762	     -7.28705376	      9.64058558	     -2.28214762	     -3.32558741	      1.79537252	     -2.64868777
      0.08000000	     -2.57590178	     -4.20146538	      0.30968335	      0.09200538	      1.01919207	      1.34368205	      2.28022293	      2.29815028	     -4.20801905	    -12.30517478	      9.89469228	      1.68274140	     -0.80096303	     -7.16737788	    -11.98838611	     -7.25865273	      9.65861515	     -2.25773971	     -3.29503175	      1.78722103	     -2.64719659
      0.09000000	     -2.64313659	     -4.21972100	      0.33616368	      0.09205875	      1.01909633	      1.34367855	      2.36617936	      2.31327929	     -4.25152512	    -12.34341760	      9.90920616	      1.72464161	     -0.72435549	     -7.19945782	    -11.91464519	     -7.27286780	      9.68337771	     -2.16349186	     -3.22582034	      1.78308080	     -2.67374641
      0.10000000	     -2.65178521	     -4.23124359	      0.33563024	      0.09213807	      1.01907731	      1.34373010	      2.40283674	      2.32365493	     -4.25550889	    -12.40745013	      9.91254876	      1.73398717	     -0.73004833	     -7.22398522	    -11.88650912	     -7.26401001	      9.69761555	     -2.14223386	     -3.22308155	      1.77144481	     -2.67045086
      0.11000000	     -2.72884783	     -4.23682569	      0.34632618	      0.09220660	      1.01894161	      1.34378697	      2.53457185	      2.32384662	     -4.29193886	    -12.51486114	      9.97703494	      1.79617990	     -0.64372781	     -7.24707080	    -11.82471164	     -7.28622844	      9.74671360	     -2.00594428	     -3.13230241	      1.75182101	     -2.68005566
      0.12000000	     -2.74642233	     -4.24678741	      0.33383759	      0.09229546	      1.01888981	      1.34390816	      2.61675605	      2.33293645	     -4.30360844	    -12.64545696	     10.01728456	      1.81452045	     -0.64549143	     -7.27278879	    -11.77758830	     -7.27414786	      9.77298250	     -1.95975827	     -3.11440608	      1.73332243	     -2.64466434
      0.13000000	     -2.80834304	     -4.22832928	      0.32373470	      0.09235178	      1.01876424	      1.34403683	      2.78337399	      2.30985826	     -4.29835049	    -12.84737011	     10.10625412	      1.85832418	     -0.58515305	     -7.26984399	    -11.74830113	     -7.28314626	      9.80650721	     -1.85935215	     -3.04458081	      1.68669324	     -2.64352712
      0.14000000	     -2.82227009	     -4.22797166	      0.30497354	      0.09242940	      1.01870641	      1.34420882	      2.91062840	      2.30943982	     -4.29982932	    -13.06728848	     10.16349005	      1.86944893	     -0.59392868	     -7.28425276	    -11.70437235	     -7.26566365	      9.82848678	     -1.81924548	     -3.03317693	      1.65675099	     -2.59538584
      0.15000000	     -2.90447986	     -4.17994185	      0.27830626	      0.09245869	      1.01854065	      1.34439667	      3.15229014	      2.25749776	     -4.26297795	    -13.36545859	     10.27854363	      1.89973802	     -0.51316358	     -7.24802712	    -11.70234000	     -7.27278050	      9.84325470	     -1.72923535	     -2.94551447	      1.57704549	     -2.57870874
      0.16000000	     -2.94715032	     -4.13568067	      0.24889943	      0.09253230	      1.01842264	      1.34460871	      3.36104254	      2.21264533	     -4.23405784	    -13.68256459	     10.40738185	      1.89109591	     -0.50196345	     -7.21087830	    -11.70095773	     -7.23289271	      9.85901878	     -1.68572162	     -2.90265291	      1.50313435	     -2.54642306
